# xmcd CD database file
#
# Track frame offsets:
#	150
#	16646
#	34122
#	53527
#	66160
#	85596
#	104626
#	120669
#	131063
#	146758
#	161305
#	177834
#	189468
#	207236
#
# Disc length: 2936 seconds
#
# Revision: 0
# Processed by: cddbd v1.4PL0 Copyright (c) Steve Scherf et al.
# Submitted via: CDex 1.40Beta9
#
DISCID=b70b760e
DTITLE=Alberto Angel "El cuervo", Valente Pastor, Humberto Cravioto - 3 Tenores Mexicanos
DYEAR=2002
DGENRE=Country
TTITLE0=Mi Ciudad
TTITLE1=Cucurrucucú Paloma
TTITLE2=Por Que?
TTITLE3=Ella
TTITLE4=Granada
TTITLE5=Un Viejo Amor
TTITLE6=El preso No. 9
TTITLE7=La norteña de mis amores
TTITLE8=Estrellita
TTITLE9=Adiós a mi Chaparrita
TTITLE10=Los Corrales
TTITLE11=El Rey
TTITLE12=La Paloma
TTITLE13=Urge
EXTD=YEAR: 2002 ID3G: 2
EXTT0=
EXTT1=
EXTT2=
EXTT3=
EXTT4=
EXTT5=
EXTT6=
EXTT7=
EXTT8=
EXTT9=
EXTT10=
EXTT11=
EXTT12=
EXTT13=
PLAYORDER=
